<?xml version="1.0" standalone="no"?>
<!DOCTYPE svg PUBLIC "-//W3C//DTD SVG 20010904//EN"
 "http://www.w3.org/TR/2001/REC-SVG-20010904/DTD/svg10.dtd">
<svg version="1.0" xmlns="http://www.w3.org/2000/svg"
 width="260.000000pt" height="260.000000pt" viewBox="0 0 260.000000 260.000000"
 preserveAspectRatio="xMidYMid meet">
<metadata>
Created by potrace 1.14, written by Peter Selinger 2001-2017
</metadata>
<g transform="translate(0.000000,260.000000) scale(0.100000,-0.100000)"
fill="#000000" stroke="none">
<path d="M1060 2583 c-192 -39 -305 -159 -360 -377 -34 -135 -30 -279 11 -441
25 -99 25 -97 32 -115 3 -8 18 -49 32 -90 58 -158 171 -361 339 -605 102 -148
137 -196 196 -270 125 -156 163 -232 155 -315 -8 -78 -66 -101 -155 -63 -30
13 -72 35 -92 48 -21 14 -40 25 -43 25 -24 0 142 -174 226 -238 61 -46 135
-82 181 -87 41 -6 88 40 89 87 4 114 -29 221 -119 390 -38 71 -178 279 -234
348 -19 22 -148 219 -148 224 0 3 -13 25 -30 49 -90 133 -223 435 -269 607
-71 268 -22 512 117 584 68 35 114 -1 104 -79 -10 -71 -6 -120 16 -176 33 -86
58 -157 89 -254 24 -75 33 -93 62 -112 51 -34 135 -30 159 8 7 11 19 47 27 82
7 34 30 116 50 182 49 162 50 229 7 308 -17 32 -46 91 -63 132 -47 115 -109
156 -239 160 -41 1 -104 -4 -140 -12z m150 -462 c5 -11 10 -27 10 -35 0 -19
-29 -22 -31 -3 -1 6 -3 22 -4 35 -3 27 11 29 25 3z m256 -18 c-5 -29 -18 -53
-27 -53 -10 0 -12 53 -2 63 13 14 33 7 29 -10z"/>
<path d="M1005 2326 c-95 -43 -145 -167 -139 -346 2 -52 5 -104 8 -115 41
-179 47 -199 103 -340 87 -216 225 -449 443 -744 50 -69 109 -155 131 -191 40
-68 115 -242 123 -286 3 -13 7 -27 10 -32 2 -4 8 -39 11 -78 7 -75 -2 -114
-37 -151 -12 -13 -18 -26 -14 -30 4 -5 43 -8 86 -8 71 0 82 3 121 30 40 28 83
94 96 148 15 64 11 200 -8 270 -45 164 -164 362 -312 521 -285 303 -416 495
-491 718 -27 80 -29 99 -31 238 -2 106 -7 147 -23 189 -11 29 -18 67 -16 85 2
17 5 48 8 69 3 25 0 42 -10 52 -18 18 -21 18 -59 1z"/>
<path d="M64 2249 c-18 -5 -39 -21 -49 -35 -57 -87 84 -272 343 -450 42 -29
82 -57 88 -61 14 -11 47 -30 144 -82 128 -69 160 -83 159 -68 -2 33 -56 171
-69 178 -8 4 -49 22 -90 41 -85 37 -263 136 -268 149 -2 5 -8 9 -14 9 -19 0
-147 101 -193 152 -34 38 -45 58 -45 84 0 41 19 53 78 50 48 -3 63 8 33 23
-27 15 -81 19 -117 10z"/>
<path d="M2217 1934 c-1 -1 -20 -4 -42 -7 -120 -17 -265 -96 -370 -201 -74
-74 -350 -415 -368 -453 -11 -25 10 -61 79 -138 20 -22 51 -57 70 -77 61 -68
66 -68 133 14 33 40 90 116 127 168 93 133 135 183 228 275 166 164 326 232
425 181 71 -37 79 -117 25 -251 -14 -36 25 3 49 49 18 34 22 57 22 136 -1 86
-4 100 -30 150 -34 62 -101 110 -190 135 -43 12 -151 25 -158 19z"/>
<path d="M2367 1683 c-4 -3 3 -11 16 -17 54 -28 11 -128 -80 -186 -42 -27
-125 -56 -163 -59 -137 -8 -129 -3 -213 -114 -35 -46 -37 -51 -21 -60 10 -6
63 -11 119 -12 115 -1 216 18 298 59 141 69 235 235 192 339 -15 36 -125 73
-148 50z"/>
<path d="M1220 1565 c0 -11 42 -89 82 -153 39 -60 47 -66 110 -76 28 -5 30 -3
103 89 57 71 59 67 -35 83 -72 13 -106 21 -155 34 -22 5 -51 12 -64 15 -14 2
-28 6 -33 9 -4 3 -8 2 -8 -1z"/>
<path d="M199 1370 c-81 -8 -137 -35 -163 -81 -26 -45 -31 -164 -10 -244 16
-59 56 -149 72 -159 5 -3 16 13 26 35 25 56 62 73 145 66 162 -14 400 -140
614 -327 56 -48 82 -71 110 -96 57 -50 175 -133 219 -154 98 -46 154 -19 142
68 -16 119 -206 395 -388 565 -162 151 -383 274 -544 303 -14 3 -29 7 -32 9
-4 3 -32 7 -61 11 -30 3 -56 7 -59 8 -3 1 -35 -1 -71 -4z"/>
<path d="M186 928 c-20 -10 -36 -24 -37 -31 0 -6 -2 -22 -3 -33 -5 -48 86
-177 174 -246 164 -129 348 -174 632 -158 73 5 69 22 -24 109 -166 156 -200
179 -244 164 -30 -9 -98 -9 -149 2 -39 8 -111 40 -119 53 -11 18 26 37 78 38
73 1 66 22 -18 57 -38 16 -76 30 -85 33 -9 2 -34 8 -56 13 -76 19 -111 18
-149 -1z"/>
</g>
</svg>
